<?xml version="1.0" encoding="UTF-8"?>
<svg id="Layer_1" data-name="Layer 1" xmlns="http://www.w3.org/2000/svg" xmlns:xlink="http://www.w3.org/1999/xlink" viewBox="0 0 110.74 29.06">
  <defs>
    <style>
      .cls-1 {
        fill: url(#linear-gradient-3);
      }

      .cls-2 {
        fill: url(#linear-gradient-2);
      }

      .cls-3 {
        fill: #8a5df6;
      }

      .cls-4 {
        fill: url(#linear-gradient);
      }
    </style>
    <linearGradient id="linear-gradient" x1="-6.99" y1="9.87" x2="22.93" y2="24.5" gradientUnits="userSpaceOnUse">
      <stop offset=".23" stop-color="#6366f1"/>
      <stop offset="1" stop-color="#8a5df6"/>
    </linearGradient>
    <linearGradient id="linear-gradient-2" x1="-3.37" y1="2.45" x2="26.56" y2="17.08" xlink:href="#linear-gradient"/>
    <linearGradient id="linear-gradient-3" x1="-4.67" y1="5.11" x2="25.26" y2="19.74" xlink:href="#linear-gradient"/>
  </defs>
  <g>
    <path class="cls-4" d="M14.6,19.83c-1.51,0-2.95-.34-4.29-1.01l-1.29,2.58c1.74.87,3.62,1.31,5.58,1.31s3.84-.44,5.58-1.31l-1.29-2.58c-1.34.67-2.78,1.01-4.29,1.01Z"/>
    <polygon class="cls-2" points="10.54 15.39 13.04 16.83 14.61 14.12 16.17 16.83 18.67 15.39 17.1 12.68 20.24 12.68 20.24 9.79 17.1 9.79 18.67 7.08 16.17 5.64 14.61 8.35 13.04 5.64 10.54 7.08 12.11 9.79 8.97 9.79 8.97 12.68 12.11 12.68 10.54 15.39"/>
    <path class="cls-1" d="M.56.49v28.08h28.08V.49H.56ZM25.76,25.69H3.45V3.37h22.32v22.32Z"/>
  </g>
  <g>
    <polygon class="cls-3" points="50.47 10.91 56.25 21.4 58.04 21.4 50.47 7.67 42.9 21.4 44.69 21.4 50.47 10.91"/>
    <polygon class="cls-3" points="110.02 7.72 103.3 14.85 96.59 7.72 96.59 10 103.3 17.13 108.46 11.66 108.46 21.4 110.02 21.4 110.02 7.72"/>
    <polygon class="cls-3" points="64.4 14.56 72.67 7.72 70.22 7.72 61.94 14.56 70.22 21.4 72.67 21.4 64.4 14.56"/>
    <rect class="cls-3" x="79.27" y="7.72" width="10.73" height="1.56"/>
    <rect class="cls-3" x="79.27" y="13.77" width="10.73" height="1.56"/>
    <rect class="cls-3" x="79.27" y="19.83" width="10.73" height="1.56"/>
  </g>
</svg>